<?xml version="1.0" encoding="UTF-8"?>
<svg id="Layer_1" xmlns="http://www.w3.org/2000/svg" version="1.1" viewBox="0 0 48 48">
  <!-- Generator: Adobe Illustrator 29.2.1, SVG Export Plug-In . SVG Version: 2.1.0 Build 116)  -->
  <defs>
    <style>
      .st0 {
        fill: #0E0E0E;
      }

      .st1 {
        fill: #F9F9F9;
      }
    </style>
  </defs>
  <circle class="st0" cx="24" cy="24" r="24"/>
  <path class="st1" d="M27.7,36.1v1.9c0,.8-.4,1.3-1.3,1.3h-4.9c-.8,0-1.3-.4-1.3-1.3v-1.9h-4.6c-.8,0-1.3-.4-1.3-1.3v-4c0-.8.4-1.3,1.3-1.3h9.1c.3,0,.4,0,.7-.3.1-.2.2-.4.2-.7s0-.7-.2-.8c-.1-.2-.4-.3-.7-.3l-5.1-.7c-1.6-.3-2.8-.7-3.8-1.6s-1.5-2.1-1.5-4.1v-3.6c0-1.8.4-3.2,1.6-4.1,1-1,2.4-1.6,4.4-1.7v-1.9c0-.8.4-1.3,1.3-1.3h4.9c.8,0,1.3.4,1.3,1.3v1.9h3.3c.8,0,1.3.4,1.3,1.3v4.1c0,.8-.4,1.3-1.3,1.3h-7.9c-.6,0-.9.4-.9,1s.3,1,.9,1.1l5,.7c1,.1,2,.4,2.7.8s1.4,1,1.9,1.7.7,1.8.7,3v3.6c0,1.7-.5,3.1-1.5,4.1-1,1-2.4,1.6-4.2,1.8h0c0-.1,0,0,0,0Z"/>
</svg>